<?xml version="1.0" encoding="UTF-8" standalone="no"?>
<!-- Uploaded to: SVG Repo, www.svgrepo.com, Generator: SVG Repo Mixer Tools -->

<svg
   width="800px"
   height="800px"
   viewBox="0 -0.5 21 21"
   version="1.1"
   id="svg1"
   sodipodi:docname="help.svg"
   inkscape:version="1.4.2 (2aeb623e1d, 2025-05-12)"
   xmlns:inkscape="http://www.inkscape.org/namespaces/inkscape"
   xmlns:sodipodi="http://sodipodi.sourceforge.net/DTD/sodipodi-0.dtd"
   xmlns="http://www.w3.org/2000/svg"
   xmlns:svg="http://www.w3.org/2000/svg">
  <sodipodi:namedview
     id="namedview1"
     pagecolor="#ffffff"
     bordercolor="#000000"
     borderopacity="0.25"
     inkscape:showpageshadow="2"
     inkscape:pageopacity="0.0"
     inkscape:pagecheckerboard="0"
     inkscape:deskcolor="#d1d1d1"
     inkscape:zoom="0.5"
     inkscape:cx="399"
     inkscape:cy="401"
     inkscape:window-width="1920"
     inkscape:window-height="1011"
     inkscape:window-x="0"
     inkscape:window-y="0"
     inkscape:window-maximized="1"
     inkscape:current-layer="Dribbble-Light-Preview" />
  <title
     id="title1">help [#1436]</title>
  <desc
     id="desc1">Created with Sketch.</desc>
  <defs
     id="defs1" />
  <g
     id="Page-1"
     stroke="none"
     stroke-width="1"
     fill="none"
     fill-rule="evenodd">
    <g
       id="Dribbble-Light-Preview"
       transform="translate(-219.000000, -560.000000)"
       fill="#000000">
      <rect
         id="primary"
         x="220.65382"
         y="561.20673"
         width="17.762499"
         height="17.657497"
         rx="2.8775249"
         style="fill:#000000;stroke-width:0.8855" />
      <g
         id="icons"
         transform="matrix(0.69,0,0,0.7375,109.785,267.625)"
         style="fill:#2ca7ba;fill-opacity:1">
        <path
           d="m 181.9,417 v -10 c 0,-0.552 -0.4704,-1 -1.05,-1 h -14.7 c -0.5796,0 -1.05,0.448 -1.05,1 v 10 c 0,0.552 0.4704,1 1.05,1 h 14.7 c 0.5796,0 1.05,-0.448 1.05,-1 z m -10.5,-14 v 1 h 4.2 v -1 c 0,-0.552 -0.4704,-1 -1.05,-1 h -2.1 c -0.5796,0 -1.05,0.448 -1.05,1 z m 10.5,1 c 1.16025,0 2.1,0.895 2.1,2 v 12 c 0,1.105 -0.93975,2 -2.1,2 h -16.8 c -1.16025,0 -2.1,-0.895 -2.1,-2 v -12 c 0,-1.105 0.93975,-2 2.1,-2 h 4.2 v -2 c 0,-1.105 0.93975,-2 2.1,-2 h 4.2 c 1.16025,0 2.1,0.895 2.1,2 v 2 z m -9.45,11 v -2 h -2.1 c -0.5796,0 -1.05,-0.448 -1.05,-1 0,-0.552 0.4704,-1 1.05,-1 h 2.1 v -2 c 0,-0.552 0.4704,-1 1.05,-1 0.5796,0 1.05,0.448 1.05,1 v 2 h 2.1 c 0.5796,0 1.05,0.448 1.05,1 0,0.552 -0.4704,1 -1.05,1 h -2.1 v 2 c 0,0.552 -0.4704,1 -1.05,1 -0.5796,0 -1.05,-0.448 -1.05,-1 z"
           id="help-[#1436]"
           style="fill:#2ca7ba;fill-opacity:1" />
      </g>
    </g>
  </g>
</svg>
