<?xml version="1.0" encoding="UTF-8" standalone="no"?>
<!-- Uploaded to: SVG Repo, www.svgrepo.com, Generator: SVG Repo Mixer Tools -->

<svg
   width="800px"
   height="800px"
   viewBox="0 0 1024 1024"
   class="icon"
   version="1.1"
   id="svg3"
   sodipodi:docname="quit.svg"
   inkscape:version="1.4.2 (2aeb623e1d, 2025-05-12)"
   xmlns:inkscape="http://www.inkscape.org/namespaces/inkscape"
   xmlns:sodipodi="http://sodipodi.sourceforge.net/DTD/sodipodi-0.dtd"
   xmlns="http://www.w3.org/2000/svg"
   xmlns:svg="http://www.w3.org/2000/svg">
  <defs
     id="defs3" />
  <sodipodi:namedview
     id="namedview3"
     pagecolor="#ffffff"
     bordercolor="#000000"
     borderopacity="0.25"
     inkscape:showpageshadow="2"
     inkscape:pageopacity="0.0"
     inkscape:pagecheckerboard="0"
     inkscape:deskcolor="#d1d1d1"
     inkscape:zoom="1.00375"
     inkscape:cx="400"
     inkscape:cy="400"
     inkscape:window-width="1920"
     inkscape:window-height="1011"
     inkscape:window-x="0"
     inkscape:window-y="0"
     inkscape:window-maximized="1"
     inkscape:current-layer="svg3" />
  <rect
     id="primary"
     x="85.760017"
     y="84.480011"
     width="853.33331"
     height="853.33331"
     rx="138.24001"
     style="fill:#000000;stroke-width:42.6667" />
  <path
     d="M 772.31273,867.2878 H 251.67442 c -15.07707,0 -29.63124,-2.83098 -43.4882,-8.40968 -13.24691,-5.3289 -25.2737,-13.07245 -35.47033,-22.89762 -10.19664,-9.74189 -18.30165,-21.14907 -23.8793,-33.88847 -5.83909,-13.15573 -8.80222,-27.14409 -8.80222,-41.46551 v -497.3363 c 0,-14.32142 2.96313,-28.30979 8.80222,-41.46551 5.57765,-12.65614 13.68266,-24.14658 23.96645,-33.88848 10.19663,-9.7419 22.13627,-17.40219 35.47033,-22.81435 13.76981,-5.5787 28.32398,-8.40968 43.40105,-8.40968 h 520.55116 c 15.07707,0 29.63124,2.83098 43.4882,8.40968 13.24691,5.3289 25.2737,13.07245 35.47033,22.89762 10.19664,9.74189 18.30165,21.14907 23.8793,33.88847 5.83909,13.15573 8.80222,27.14409 8.80222,41.46551 v 88.7595 c 0,19.65032 -16.64579,35.55376 -37.21335,35.55376 -20.56757,0 -37.21335,-15.90344 -37.21335,-35.55376 v -88.84276 c 0,-4.82932 -0.95866,-9.49211 -2.96313,-13.82184 -1.83016,-4.24647 -4.53183,-7.99335 -7.93071,-11.24065 -3.48603,-3.33056 -7.40781,-5.82848 -11.8525,-7.66029 -4.53183,-1.83181 -9.41227,-2.74772 -14.46701,-2.74772 H 251.67442 c -5.05474,0 -9.93518,0.91591 -14.46701,2.74772 -4.44469,1.83181 -8.45362,4.32973 -11.8525,7.57703 -3.48603,3.33056 -6.1877,7.07744 -8.01786,11.32391 -1.91732,4.413 -2.96313,9.07578 -2.96313,13.82184 v 497.3363 c 0,4.82932 0.95866,9.4921 2.96313,13.82184 1.83016,4.24646 4.53183,7.99335 7.93071,11.24065 3.48603,3.33056 7.40781,5.82848 11.8525,7.66029 4.53183,1.83181 9.41227,2.74771 14.46701,2.74771 h 520.55116 c 5.05474,0 9.93518,-0.9159 14.46701,-2.74771 4.44469,-1.83181 8.45362,-4.32973 11.8525,-7.57703 3.48603,-3.33056 6.1877,-7.07745 8.01786,-11.32391 1.91732,-4.413 2.96313,-9.07579 2.96313,-13.82184 v -88.7595 c 0,-19.65032 16.64578,-35.55376 37.21335,-35.55376 20.56756,0 37.21335,15.90344 37.21335,35.55376 v 88.84276 c 0,14.32142 -2.96313,28.30979 -8.80222,41.46551 -5.57765,12.65614 -13.68266,24.14658 -23.96645,33.88848 -10.19663,9.7419 -22.13627,17.40219 -35.47033,22.81435 -13.68266,5.5787 -28.32398,8.40968 -43.3139,8.40968 z"
     fill="#3688FF"
     id="path1"
     style="fill:#2ba7ba;fill-opacity:1;stroke-width:0.851852" />
  <path
     d="m 588.8,682.7 c -10.9,0 -21.8,-4.2 -30.2,-12.5 -16.7,-16.7 -16.7,-43.7 0,-60.3 l 97.8,-97.8 -97.8,-97.8 c -16.7,-16.7 -16.7,-43.7 0,-60.3 16.7,-16.7 43.7,-16.7 60.3,0 l 128,128 c 16.7,16.7 16.7,43.7 0,60.3 l -128,128 c -8.3,8.2 -19.2,12.4 -30.1,12.4 z"
     fill="#5F6379"
     id="path2"
     style="fill:#2caaba;fill-opacity:1" />
  <path
     d="m 716.8,554.7 h -384 c -23.6,0 -42.7,-19.1 -42.7,-42.7 0,-23.6 19.1,-42.7 42.7,-42.7 h 384 c 23.6,0 42.7,19.1 42.7,42.7 0,23.6 -19.1,42.7 -42.7,42.7 z"
     fill="#5F6379"
     id="path3"
     style="fill:#2caaba;fill-opacity:1" />
</svg>
